<?xml version="1.0" encoding="UTF-8"?> <svg xmlns="http://www.w3.org/2000/svg" id="Слой_1" data-name="Слой 1" viewBox="0 0 1133.86 566.93"> <defs> <style>.cls-1{fill:#1d1d1b;}.cls-2{fill:#e52421;}</style> </defs> <path class="cls-1" d="M201.47,182.9h60.72l21.87,84.92,21.71-84.92h60.69V322.46H327.14V216L299.92,322.46H268L240.79,216V322.46H201.47Z"></path> <path class="cls-1" d="M389.87,182.9H505.44v29.8H433.09v22.18h67.12v28.47H433.09v27.51h74.45v31.6H389.87Z"></path> <path class="cls-1" d="M600.93,271.91v-29h66.64v59.5q-19.14,13-33.85,17.75t-34.89,4.71q-24.84,0-40.5-8.47a58,58,0,0,1-24.28-25.23q-8.61-16.75-8.61-38.46,0-22.85,9.42-39.74a61,61,0,0,1,27.61-25.66q14.17-6.75,38.17-6.76,23.15,0,34.61,4.19a44.93,44.93,0,0,1,19,13q7.56,8.81,11.37,22.32l-41.6,7.43a22.46,22.46,0,0,0-8.71-12.09q-6.14-4.2-15.66-4.19-14.19,0-22.61,9.85t-8.42,31.18q0,22.65,8.52,32.36t23.75,9.72a45.05,45.05,0,0,0,13.8-2.1,73.66,73.66,0,0,0,15-7.14V271.91Z"></path> <path class="cls-1" d="M779,299.43H730l-6.81,23h-44L731.64,182.9h47l52.44,139.56H786Zm-9-30.18-15.4-50.17-15.24,50.17Z"></path> <path class="cls-2" d="M285,310.29h58.75q17.37,0,28.07,4.72a45.58,45.58,0,0,1,17.67,13.53,55.94,55.94,0,0,1,10.13,20.51,95,95,0,0,1,3.14,24.8q0,20.5-4.67,31.82a52.54,52.54,0,0,1-13,18.94,42.16,42.16,0,0,1-17.81,10.17,91.68,91.68,0,0,1-23.57,3.5H285Zm39.54,29V409.2h9.69q12.4,0,17.64-2.75t8.2-9.6q3-6.86,3-22.22,0-20.34-6.63-27.85t-22-7.5Z"></path> <path class="cls-2" d="M424.06,438.28v-128H490q18.33,0,28,3.15a29.84,29.84,0,0,1,15.63,11.65q5.94,8.51,5.93,20.73,0,10.65-4.54,18.38a35.52,35.52,0,0,1-12.49,12.53q-5.07,3.06-13.89,5.06,7.07,2.37,10.3,4.72a39.93,39.93,0,0,1,6.32,6.73,50.73,50.73,0,0,1,5.54,7.95l19.15,37.09H505.26l-21.14-39.12q-4-7.59-7.16-9.86a16.58,16.58,0,0,0-9.69-3h-3.49v51.95Zm39.72-76.13h16.67a59.08,59.08,0,0,0,10.48-1.75,10.4,10.4,0,0,0,6.41-4,11.84,11.84,0,0,0,2.49-7.42q0-6.21-3.93-9.52t-14.75-3.32H463.78Z"></path> <path class="cls-2" d="M564.17,310.29h39.64v128H564.17Z"></path> <path class="cls-2" d="M619.61,310.29H661l28.8,92.1,28.44-92.1h40.14l-47.52,128H667.94Z"></path> <path class="cls-2" d="M771.16,310.29h106v27.33H810.8V358h61.54v26.1H810.8v25.23h68.27v29H771.16Z"></path> </svg> 