<?xml version="1.0" encoding="iso-8859-1"?>
<!-- Generator: Adobe Illustrator 21.0.0, SVG Export Plug-In . SVG Version: 6.00 Build 0)  -->
<svg version="1.1" id="Layer_1" xmlns="http://www.w3.org/2000/svg" xmlns:xlink="http://www.w3.org/1999/xlink" x="0px" y="0px"
	 viewBox="0 0 100.353 100.353" style="enable-background:new 0 0 100.353 100.353;" xml:space="preserve">
<path style="fill:#231F20;" d="M49.995,99.999c-6.845-0.009-12.41-4.322-12.405-9.614V62.402L9.606,62.395
	c-2.635-0.009-5.108-1.344-6.929-3.792c-1.723-2.317-2.674-5.375-2.676-8.611c0-6.843,4.312-12.409,9.613-12.409l27.984,0.008
	l0.004-27.992c0.005-5.292,5.575-9.597,12.417-9.597c3.233,0.002,6.289,0.953,8.605,2.676c2.447,1.82,3.793,4.28,3.792,6.927v27.991
	L90.4,37.599c2.65,0,5.112,1.349,6.933,3.798c1.723,2.319,2.671,5.377,2.669,8.612c0,6.841-4.311,12.407-9.609,12.407H62.417
	l-0.009,27.973l0,0C62.402,95.688,56.834,99.999,49.995,99.999z M9.604,59.481l29.441,0.008c0.805,0,1.456,0.652,1.456,1.456v29.441
	c-0.003,3.688,4.256,6.693,9.494,6.7c5.233,0,9.494-3.006,9.497-6.702l0.009-29.428c0-0.804,0.652-1.456,1.456-1.456h29.432
	c3.693,0,6.697-4.26,6.697-9.496c0.002-2.613-0.742-5.054-2.094-6.874c-1.256-1.691-2.889-2.623-4.595-2.623l-29.44-0.004
	c-0.804,0-1.456-0.652-1.456-1.456V9.597c0.002-1.703-0.928-3.332-2.617-4.589c-1.818-1.352-4.257-2.098-6.868-2.1
	c-5.236,0-9.5,2.999-9.503,6.686l-0.004,29.448c0,0.387-0.154,0.757-0.427,1.03s-0.644,0.427-1.03,0.427l0,0L9.611,40.491
	c-3.694,0-6.7,4.26-6.7,9.496c0.002,2.614,0.748,5.056,2.101,6.874c1.256,1.688,2.885,2.618,4.587,2.618
	C9.602,59.481,9.603,59.481,9.604,59.481z M60.95,90.386h0.009H60.95z"/>
</svg>
